<?xml version="1.0" encoding="UTF-8" standalone="no"?>
<svg
   xmlns:dc="http://purl.org/dc/elements/1.1/"
   xmlns:cc="http://creativecommons.org/ns#"
   xmlns:rdf="http://www.w3.org/1999/02/22-rdf-syntax-ns#"
   xmlns:svg="http://www.w3.org/2000/svg"
   xmlns="http://www.w3.org/2000/svg"
   id="svg60"
   version="1.1"
   viewBox="0 0 70.518478 17.15081"
   height="17.15081mm"
   width="70.518478mm">
  <defs
     id="defs54" />
  <metadata
     id="metadata57">
    <rdf:RDF>
      <cc:Work
         rdf:about="">
        <dc:format>image/svg+xml</dc:format>
        <dc:type
           rdf:resource="http://purl.org/dc/dcmitype/StillImage" />
        <dc:title></dc:title>
      </cc:Work>
    </rdf:RDF>
  </metadata>
  <g
     transform="translate(-43.00008,-131.56383)"
     id="layer1">
    <g
       id="g113">
      <path
         id="path33"
         d="m 55.887781,141.0304 h 2.182749 l -0.0021,-1.7475 h -2.180569 z m 0,0"
         style="fill:#eb1923;fill-opacity:1;fill-rule:nonzero;stroke:none;stroke-width:0.55711287" />
      <path
         id="path35"
         d="m 56.394841,139.2829 c 0.0283,0.2372 0.0434,0.47876 0.0434,0.7225 0,3.22951 -2.615811,5.84534 -5.843151,5.84534 -3.22733,0 -5.84315,-2.61583 -5.84315,-5.84534 0,-3.22516 2.61582,-5.84316 5.84315,-5.84316 2.657181,0 4.900851,1.7758 5.610299,4.20446 h 1.85198 c -0.742108,-3.42972 -3.790989,-5.99548 -7.440519,-5.99548 -4.20664,0 -7.61677,3.40795 -7.61677,7.61459 0,4.20446 3.41013,7.61461 7.61677,7.61461 4.204461,0 7.61461,-3.41015 7.61461,-7.61461 0,-0.2372 -0.01101,-0.47005 -0.0327,-0.70291 z m 0,0"
         style="fill:#eb1923;fill-opacity:1;fill-rule:nonzero;stroke:none;stroke-width:0.55711287" />
      <path
         id="path37"
         d="m 55.528701,132.67806 c -0.01579,0.0174 -1.512472,1.77362 -2.256739,4.51784 -0.981483,3.62993 -0.252431,7.09884 2.174049,10.53727 l -1.39061,0.98147 c -3.423191,-4.85733 -3.194701,-9.17496 -2.402541,-12.03885 0.857419,-3.09459 2.522241,-5.03144 2.591871,-5.11196 z m 0,0"
         style="fill:#eb1923;fill-opacity:1;fill-rule:nonzero;stroke:none;stroke-width:0.55711287" />
      <path
         id="path39"
         d="m 52.031521,141.0304 h 2.26545 v -1.74533 h -2.26545 z m 0,0"
         style="fill:#eb1923;fill-opacity:1;fill-rule:nonzero;stroke:none;stroke-width:0.55711287" />
      <path
         id="path41"
         d="m 54.714801,136.4995 c 0,0 0.41131,0.30032 1.03805,1.82368 0,0 -0.581041,1.6931 -0.0674,3.77139 0,0 -0.487471,0.93143 -1.138161,1.69964 0,0 -1.545111,-4.18922 0.167571,-7.29471"
         style="fill:#eb1923;fill-opacity:1;fill-rule:nonzero;stroke:none;stroke-width:0.55711287" />
      <path
         id="path43"
         d="m 45.63777,132.67806 c 0.0158,0.0174 1.5103,1.77362 2.25457,4.51784 0.98365,3.62993 0.25244,7.09884 -2.17186,10.53727 l 1.38841,0.98147 c 3.42321,-4.85733 3.19688,-9.17496 2.40256,-12.03885 -0.85743,-3.09459 -2.52007,-5.03144 -2.59187,-5.11196 z m 0,0"
         style="fill:#eb1923;fill-opacity:1;fill-rule:nonzero;stroke:none;stroke-width:0.55711287" />
      <path
         id="path45"
         d="m 49.13497,141.0304 h -2.26545 v -1.74533 h 2.26545 z m 0,0"
         style="fill:#eb1923;fill-opacity:1;fill-rule:nonzero;stroke:none;stroke-width:0.55711287" />
      <path
         id="path47"
         d="m 46.44951,136.4995 c 0,0 -0.40913,0.30032 -1.03589,1.82368 0,0 0.58106,1.6931 0.0674,3.77139 0,0 0.4853,0.93143 1.13818,1.69964 0,0 1.54294,-4.18922 -0.16975,-7.29471"
         style="fill:#eb1923;fill-opacity:1;fill-rule:nonzero;stroke:none;stroke-width:0.55711287" />
    </g>
    <g
       transform="translate(36.453963,-16.870916)"
       id="g103">
      <path
         id="path49"
         d="m 46.22971,160.4053 c 0.50488,0.51577 1.04893,0.98149 1.51682,0.98149 h 0.23068 v -7.86269 h -0.83349 v 5.29039 l -4.86167,-5.29039 h -1.20564 c 0,0 0.0456,0.87702 0.0456,1.67133 v 6.19136 h 0.82697 v -5.63424 z m 0,0"
         style="fill:#eb1923;fill-opacity:1;fill-rule:nonzero;stroke:none;stroke-width:0.55711287" />
      <path
         id="path51"
         d="m 33.17238,156.41847 -3.95203,-0.005 v 0.8596 h 1.25133 c 0.49835,0 0.64852,0.14356 0.64852,0.34603 0,0.0327 0,0.9053 0,0.94012 0,1.99342 -0.0369,2.15446 -1.92597,2.15446 -1.68873,0 -2.94659,-1.31008 -2.94659,-3.67782 0,-0.14355 0.005,-0.28508 0.0158,-0.42219 0.15239,-1.84108 0.79431,-3.19469 3.09676,-3.30786 1.71486,0 3.13376,0.54189 3.47108,0.81609 l 0.14576,-0.92054 c 0,0 -1.37103,-0.73557 -3.43409,-0.73557 -0.1415,0 -0.25896,0.002 -0.36342,0.009 h -0.0565 c -0.1066,0 -0.17627,0.005 -0.28944,0.011 -0.28944,0.0158 -0.57888,0.0565 -0.86396,0.12413 -1.76274,0.35046 -3.5886,1.4625 -3.71481,4.10009 -0.0126,0.13708 -0.0218,0.27638 -0.0218,0.42219 0,2.73986 1.87373,4.44602 4.96178,4.43296 3.25127,-0.0126 3.97814,0.0587 3.97814,-2.82909 0,-0.17409 0,-2.31768 0,-2.31768"
         style="fill:#eb1923;fill-opacity:1;fill-rule:nonzero;stroke:none;stroke-width:0.55711287" />
      <path
         id="path53"
         d="m 77.064599,156.69485 -3.743089,-0.002 v 0.81174 h 1.183859 c 0.474412,0 0.61368,0.13707 0.61368,0.3286 0,0.0305 0.0021,0.85526 0.0021,0.89008 0,1.88678 -0.0347,2.03694 -1.82367,2.03694 -1.59952,0 -2.78992,-1.23827 -2.78992,-3.47978 0,-0.13486 0.005,-0.26986 0.01259,-0.40043 0.145759,-1.74097 0.75297,-3.02276 2.93356,-3.13158 1.62346,0 2.96618,0.51359 3.286099,0.77474 l 0.13707,-0.87267 c 0,0 -1.29702,-0.69639 -3.251269,-0.69639 -0.132821,0 -0.24592,0.005 -0.34385,0.008 h -0.0523 c -0.10233,0 -0.169752,0.005 -0.274201,0.0111 -0.274209,0.0126 -0.54841,0.0523 -0.818261,0.11529 -1.669159,0.33296 -3.397078,1.38625 -3.516789,3.88238 -0.01259,0.1306 -0.01961,0.26331 -0.01961,0.39824 0,2.59624 1.771441,4.211 4.696291,4.19794 3.07717,-0.0126 3.76487,0.0565 3.76487,-2.67676 0,-0.16539 0.0021,-2.1958 0.0021,-2.1958"
         style="fill:#eb1923;fill-opacity:1;fill-rule:nonzero;stroke:none;stroke-width:0.55711287" />
      <path
         id="path55"
         d="m 49.28296,154.28577 h 2.182741 v 7.10102 h 1.83238 v -7.09448 h 2.182749 v -0.76821 h -6.19787 z m 0,0"
         style="fill:#eb1923;fill-opacity:1;fill-rule:nonzero;stroke:none;stroke-width:0.55711287" />
      <path
         id="path57"
         d="m 56.797439,161.38679 h 1.830203 v -7.86051 h -1.830203 z m 0,0"
         style="fill:#eb1923;fill-opacity:1;fill-rule:nonzero;stroke:none;stroke-width:0.55711287" />
      <path
         id="path59"
         d="m 34.91553,155.14973 v 5.0989 c 0,0.63326 0.005,1.13816 0.68115,1.13816 h 3.74745 v -0.76604 h -2.39602 c -0.20673,0 -0.19585,-0.20891 -0.19585,-0.36778 h -0.002 v -2.61799 h 2.59407 v -0.76822 h -2.59405 v -2.57663 h 2.59405 v -0.76603 h -4.48302 c 0,0 0.0545,0.77255 0.0545,1.62563"
         style="fill:#eb1923;fill-opacity:1;fill-rule:nonzero;stroke:none;stroke-width:0.55711287" />
      <path
         id="path61"
         d="m 65.66337,160.40748 c 0.504881,0.51359 1.048941,0.97931 1.51683,0.97931 h 0.22851 v -7.86269 h -0.833498 v 5.29257 L 61.71571,153.5241 h -1.207799 c 0,0 0.0456,0.8792 0.0456,1.67133 v 6.19136 h 0.82913 v -5.63424 z m 0,0"
         style="fill:#eb1923;fill-opacity:1;fill-rule:nonzero;stroke:none;stroke-width:0.55711287" />
    </g>
  </g>
</svg>
